<svg width="67" height="75" viewBox="0 0 67 75" fill="none" xmlns="http://www.w3.org/2000/svg">
<path d="M33 0C37.1108 0 40.5932 1.50213 43.5 4.40895C46.4068 7.31576 48 13.8891 48 18L59 18C59 18 60.0551 18.1057 61.5 19.5C62.9449 20.8943 63 22 63 22L66.5805 69.344C66.6174 70.384 66.4446 71.4208 66.0721 72.3925C65.6997 73.3643 65.1354 74.2511 64.4129 75H61.8883H58.4951H33.4951H8.49511H5.46593H3.16762C2.44508 74.2511 1.88077 73.3643 1.50836 72.3925C1.13595 71.4208 0.963057 70.384 1 69.344L3 22C3 22 3.05508 20.8943 4.5 19.5C5.94492 18.1057 7 18 7 18L18 18C18 13.8891 19.9233 7.31576 22.8301 4.40895C25.7369 1.50213 28.8892 0 33 0ZM18 22H7L6.5805 46L6 71H62L59 22H48V27C48 28.5 47.4081 29.9992 46 30C44.59 30.0008 44 28.5 44 26.9941V22H22V26.9941C22 28.5 21.5 30 20 30C18.5 30 18 28.5 18 26.9941V22ZM32.9951 4C31.0399 3.99938 30 4 27.5 5.5C25 7 21 16 22 18H44C45 16 41 7 38.5 5.5C36 4 35.0505 4 32.9951 4Z" fill="#2C4421"/>
</svg>
